<svg width="804" height="345" viewBox="0 0 804 345" fill="none" xmlns="http://www.w3.org/2000/svg">
<rect width="804" height="345" fill="#1A1A1A"/>
<path d="M108.608 216V128.727H142.017C148.324 128.727 153.565 129.722 157.741 131.71C161.946 133.67 165.085 136.355 167.159 139.764C169.261 143.173 170.312 147.037 170.312 151.355C170.312 154.906 169.631 157.946 168.267 160.474C166.903 162.974 165.071 165.006 162.77 166.568C160.469 168.131 157.898 169.253 155.057 169.935V170.787C158.153 170.957 161.122 171.909 163.963 173.642C166.832 175.347 169.176 177.761 170.994 180.886C172.813 184.011 173.722 187.79 173.722 192.222C173.722 196.739 172.628 200.801 170.44 204.409C168.253 207.989 164.957 210.815 160.554 212.889C156.151 214.963 150.611 216 143.935 216H108.608ZM124.418 202.79H141.42C147.159 202.79 151.293 201.696 153.821 199.509C156.378 197.293 157.656 194.452 157.656 190.986C157.656 188.401 157.017 186.071 155.739 183.997C154.46 181.895 152.642 180.247 150.284 179.054C147.926 177.832 145.114 177.222 141.847 177.222H124.418V202.79ZM124.418 165.844H140.057C142.784 165.844 145.241 165.347 147.429 164.352C149.616 163.33 151.335 161.895 152.585 160.048C153.864 158.173 154.503 155.957 154.503 153.401C154.503 150.02 153.31 147.236 150.923 145.048C148.565 142.861 145.057 141.767 140.398 141.767H124.418V165.844ZM215.771 217.278C209.208 217.278 203.54 215.915 198.768 213.188C194.023 210.432 190.373 206.54 187.816 201.511C185.259 196.455 183.981 190.503 183.981 183.656C183.981 176.923 185.259 171.014 187.816 165.929C190.401 160.815 194.009 156.838 198.64 153.997C203.271 151.128 208.711 149.693 214.961 149.693C218.995 149.693 222.802 150.347 226.381 151.653C229.989 152.932 233.171 154.92 235.927 157.619C238.711 160.318 240.898 163.756 242.489 167.932C244.08 172.08 244.876 177.023 244.876 182.761V187.491H191.225V177.094H230.089C230.06 174.139 229.421 171.511 228.171 169.21C226.921 166.881 225.174 165.048 222.93 163.713C220.714 162.378 218.129 161.71 215.174 161.71C212.021 161.71 209.251 162.477 206.864 164.011C204.478 165.517 202.617 167.506 201.282 169.977C199.975 172.42 199.308 175.105 199.279 178.031V187.108C199.279 190.915 199.975 194.182 201.367 196.909C202.759 199.608 204.705 201.682 207.205 203.131C209.705 204.551 212.631 205.261 215.984 205.261C218.228 205.261 220.259 204.949 222.077 204.324C223.896 203.67 225.472 202.719 226.808 201.469C228.143 200.219 229.151 198.67 229.833 196.824L244.237 198.443C243.327 202.25 241.594 205.574 239.038 208.415C236.509 211.227 233.271 213.415 229.322 214.977C225.373 216.511 220.856 217.278 215.771 217.278ZM276.761 217.321C272.614 217.321 268.878 216.582 265.554 215.105C262.259 213.599 259.645 211.384 257.713 208.457C255.81 205.531 254.858 201.923 254.858 197.634C254.858 193.94 255.54 190.886 256.903 188.472C258.267 186.057 260.128 184.125 262.486 182.676C264.844 181.227 267.5 180.134 270.455 179.395C273.438 178.628 276.52 178.074 279.702 177.733C283.537 177.335 286.648 176.98 289.034 176.668C291.42 176.327 293.153 175.815 294.233 175.134C295.341 174.423 295.895 173.33 295.895 171.852V171.597C295.895 168.386 294.943 165.901 293.04 164.139C291.136 162.378 288.395 161.497 284.815 161.497C281.037 161.497 278.04 162.321 275.824 163.969C273.636 165.616 272.159 167.562 271.392 169.807L256.989 167.761C258.125 163.784 260 160.46 262.614 157.79C265.227 155.091 268.423 153.074 272.202 151.739C275.98 150.375 280.156 149.693 284.73 149.693C287.884 149.693 291.023 150.062 294.148 150.801C297.273 151.54 300.128 152.761 302.713 154.466C305.298 156.142 307.372 158.429 308.935 161.327C310.526 164.224 311.321 167.847 311.321 172.193V216H296.491V207.009H295.98C295.043 208.827 293.722 210.531 292.017 212.122C290.341 213.685 288.224 214.949 285.668 215.915C283.139 216.852 280.17 217.321 276.761 217.321ZM280.767 205.986C283.864 205.986 286.548 205.375 288.821 204.153C291.094 202.903 292.841 201.256 294.062 199.21C295.312 197.165 295.938 194.935 295.938 192.52V184.807C295.455 185.205 294.631 185.574 293.466 185.915C292.33 186.256 291.051 186.554 289.631 186.81C288.21 187.065 286.804 187.293 285.412 187.491C284.02 187.69 282.813 187.861 281.79 188.003C279.489 188.315 277.429 188.827 275.611 189.537C273.793 190.247 272.358 191.241 271.307 192.52C270.256 193.77 269.73 195.389 269.73 197.378C269.73 200.219 270.767 202.364 272.841 203.812C274.915 205.261 277.557 205.986 280.767 205.986ZM355.384 217.278C348.849 217.278 343.239 215.844 338.551 212.974C333.892 210.105 330.298 206.142 327.77 201.085C325.27 196 324.02 190.148 324.02 183.528C324.02 176.881 325.298 171.014 327.855 165.929C330.412 160.815 334.02 156.838 338.679 153.997C343.366 151.128 348.906 149.693 355.298 149.693C360.611 149.693 365.313 150.673 369.403 152.634C373.523 154.565 376.804 157.307 379.247 160.858C381.69 164.381 383.082 168.5 383.423 173.216H368.679C368.082 170.062 366.662 167.435 364.418 165.332C362.202 163.202 359.233 162.136 355.511 162.136C352.358 162.136 349.588 162.989 347.202 164.693C344.815 166.369 342.955 168.784 341.619 171.938C340.313 175.091 339.659 178.869 339.659 183.273C339.659 187.733 340.313 191.568 341.619 194.778C342.926 197.96 344.759 200.418 347.116 202.151C349.503 203.855 352.301 204.707 355.511 204.707C357.784 204.707 359.815 204.281 361.605 203.429C363.423 202.548 364.943 201.284 366.165 199.636C367.386 197.989 368.224 195.986 368.679 193.628H383.423C383.054 198.259 381.69 202.364 379.332 205.943C376.974 209.494 373.764 212.278 369.702 214.295C365.639 216.284 360.866 217.278 355.384 217.278ZM424.641 217.278C418.249 217.278 412.71 215.872 408.022 213.06C403.335 210.247 399.698 206.312 397.113 201.256C394.556 196.199 393.278 190.29 393.278 183.528C393.278 176.767 394.556 170.844 397.113 165.759C399.698 160.673 403.335 156.724 408.022 153.912C412.71 151.099 418.249 149.693 424.641 149.693C431.033 149.693 436.573 151.099 441.261 153.912C445.948 156.724 449.57 160.673 452.127 165.759C454.712 170.844 456.005 176.767 456.005 183.528C456.005 190.29 454.712 196.199 452.127 201.256C449.57 206.312 445.948 210.247 441.261 213.06C436.573 215.872 431.033 217.278 424.641 217.278ZM424.727 204.92C428.192 204.92 431.09 203.969 433.42 202.065C435.749 200.134 437.482 197.548 438.619 194.31C439.783 191.071 440.366 187.463 440.366 183.486C440.366 179.48 439.783 175.858 438.619 172.619C437.482 169.352 435.749 166.753 433.42 164.821C431.09 162.889 428.192 161.923 424.727 161.923C421.175 161.923 418.221 162.889 415.863 164.821C413.533 166.753 411.786 169.352 410.621 172.619C409.485 175.858 408.917 179.48 408.917 183.486C408.917 187.463 409.485 191.071 410.621 194.31C411.786 197.548 413.533 200.134 415.863 202.065C418.221 203.969 421.175 204.92 424.727 204.92ZM484.524 177.648V216H469.098V150.545H483.842V161.668H484.609C486.115 158.003 488.516 155.091 491.811 152.932C495.135 150.773 499.24 149.693 504.126 149.693C508.643 149.693 512.578 150.659 515.93 152.591C519.311 154.523 521.925 157.321 523.771 160.986C525.646 164.651 526.57 169.097 526.541 174.324V216H511.115V176.71C511.115 172.335 509.979 168.912 507.706 166.44C505.462 163.969 502.351 162.733 498.374 162.733C495.675 162.733 493.274 163.33 491.172 164.523C489.098 165.687 487.464 167.378 486.271 169.594C485.107 171.81 484.524 174.494 484.524 177.648ZM546.911 216V128.727H552.237V169.849H604.822V128.727H610.149V216H604.822V174.793H552.237V216H546.911ZM633.81 216V150.545H638.967V216H633.81ZM636.41 138.955C635.273 138.955 634.279 138.557 633.427 137.761C632.603 136.966 632.191 136 632.191 134.864C632.191 133.727 632.603 132.761 633.427 131.966C634.251 131.17 635.245 130.773 636.41 130.773C637.546 130.773 638.526 131.17 639.35 131.966C640.202 132.761 640.629 133.727 640.629 134.864C640.629 136 640.217 136.966 639.393 137.761C638.569 138.557 637.575 138.955 636.41 138.955ZM665.941 128.727V216H660.742V128.727H665.941ZM692.66 128.727V216H687.461V128.727H692.66Z" fill="#E5B903"/>
</svg>
